# xmcd CD database file
#
# Track frame offsets:
#	150
#	25308
#	40072
#	56817
#	77802
#	91071
#	109174
#	128452
#	147772
#	175897
#	191743
#	205109
#	223824
#	239025
#
# Disc length: 3372 seconds
#
# Revision: 0
# Processed by: cddbd v1.5.2PL0 Copyright (c) Steve Scherf et al.
# Submitted via: CDex 1.51
#
DISCID=c60d2a0e
DTITLE=Free - Free - The Collection
DYEAR=2006
DGENRE=Blues
TTITLE0=All Right Now
TTITLE1=The Stealer
TTITLE2=Wishing Well
TTITLE3=Come Together In The Morning
TTITLE4=My Brother Jake
TTITLE5=Fire And Water
TTITLE6=The Hunter
TTITLE7=The Highway Song
TTITLE8=Heartbreaker
TTITLE9=Walk In My Shadow
TTITLE10=I'm A Mover
TTITLE11=Commom Mortal Man
TTITLE12=Travelling Man
TTITLE13=Sail On
EXTD=YEAR: 2006
EXTT0=
EXTT1=
EXTT2=
EXTT3=
EXTT4=
EXTT5=
EXTT6=
EXTT7=
EXTT8=
EXTT9=
EXTT10=
EXTT11=
EXTT12=
EXTT13=
PLAYORDER=
